# xmcd
#
# Track frame offsets:
#	150
#	15910
#	33074
#	49855
#	67019
#	83732
#	100365
#	117767
#	133798
#	146506
#	168795
#	186786
#	200213
#	217314
#	235089
#	246810
#	262572
#	281726
#	296069
#
# Disc length: 4119 seconds
#
# Revision: 1
# Processed by: cddbd v1.5.2PL0 Copyright (c) Steve Scherf et al.
# Submitted via: audiograbber 1.82.02
#
DISCID=14101513
DTITLE=Various Artist - Country Radio - March 2012
DYEAR=2012
DGENRE=Country
TTITLE0=Lisa Matassa - Wouldn't You Like To Know
TTITLE1=Thompson Square - Glass
TTITLE2=Zac Brown Band - No Hurry
TTITLE3=Marlee Scott - Train Wreck
TTITLE4=Dustin Lynch - Cowboys and Angels (PO Clean Edit)
TTITLE5=Rascal Flatts - Banjo
TTITLE6=Darrell Scott - Hopkinsville
TTITLE7=Ira Dean - Something About A Sunday
TTITLE8=J.T. Hodges - Goodbyes Made You Mine
TTITLE9=Kevin Gordon - Gloryland
TTITLE10=Jason Cassidy - What If
TTITLE11=Clay Walker - Like We Never Said Goodbye (PO Clean Edit)
TTITLE12=Wood Brothers - Shoofly Pie
TTITLE13=Julie Ingram - Thank God (For Mom and Dad)
TTITLE14=Chris Young - You (Acoustic Ver)
TTITLE15=Phil Vassar - Don't Miss Your Life
TTITLE16=Gretchen Peters - Hello Cruel World
TTITLE17=Steve Brook - One Fallen Soldier
TTITLE18=Cuff The Duke - Count On Me
EXTD=
EXTT0=
EXTT1=
EXTT2=
EXTT3=
EXTT4=
EXTT5=
EXTT6=
EXTT7=
EXTT8=
EXTT9=
EXTT10=
EXTT11=
EXTT12=
EXTT13=
EXTT14=
EXTT15=
EXTT16=
EXTT17=
EXTT18=
PLAYORDER=
